<?xml version="1.0" standalone="no"?>
<!DOCTYPE svg PUBLIC "-//W3C//DTD SVG 20010904//EN"
 "http://www.w3.org/TR/2001/REC-SVG-20010904/DTD/svg10.dtd">
<svg version="1.0" xmlns="http://www.w3.org/2000/svg"
 width="512.000000pt" height="512.000000pt" viewBox="0 0 512.000000 512.000000"
 preserveAspectRatio="xMidYMid meet">

<g transform="translate(0.000000,512.000000) scale(0.100000,-0.100000)"
fill="#000000" stroke="none">
<path d="M2375 5054 c-217 -22 -372 -51 -535 -101 -401 -121 -744 -327 -1045
-628 -397 -396 -638 -885 -716 -1455 -17 -122 -18 -497 -1 -615 66 -474 234
-874 521 -1245 84 -109 302 -327 411 -411 368 -285 774 -455 1240 -520 121
-17 496 -18 615 -1 413 58 754 186 1085 407 483 323 835 799 1003 1355 74 245
102 439 102 720 0 119 -6 255 -13 305 -66 474 -234 876 -521 1245 -82 106
-290 316 -396 400 -352 279 -773 460 -1220 526 -97 14 -450 26 -530 18z m145
-76 c16 -10 24 -10 40 0 26 16 50 15 50 -1 0 -16 -27 -41 -53 -50 -20 -7 -68
9 -79 26 -22 34 4 49 42 25z m608 -75 c4 -29 -28 -47 -53 -29 -12 9 -15 19
-10 35 9 30 59 26 63 -6z m-500 1 c22 -6 28 -27 16 -57 -4 -11 -13 -13 -40 -7
-33 8 -89 0 -114 -15 -22 -14 -41 -74 -34 -111 8 -45 54 -84 99 -84 39 0 49
11 41 46 -5 17 -13 24 -31 24 -21 0 -25 5 -25 29 0 27 2 28 57 34 31 3 60 4
65 1 4 -3 8 -45 8 -93 l0 -88 -31 -7 c-56 -11 -149 -6 -178 9 -126 65 -118
247 14 306 40 18 110 24 153 13z m592 -9 c18 -22 8 -50 -19 -50 -32 0 -49 28
-32 49 17 20 35 20 51 1z m-1005 -180 c46 -83 82 -152 80 -153 -2 -2 -20 -7
-39 -12 -34 -8 -37 -6 -58 31 -20 36 -25 39 -53 34 -64 -13 -65 -14 -65 -60 0
-43 -1 -44 -35 -51 -20 -3 -38 -4 -41 -1 -5 4 23 338 29 343 5 4 83 22 90 20
4 -1 46 -69 92 -151z m848 135 c4 -4 -3 -52 -17 -108 -15 -55 -26 -109 -26
-119 0 -25 20 -49 46 -57 41 -12 63 21 93 139 l28 110 33 -3 c19 -1 36 -5 38
-7 9 -8 -50 -220 -69 -251 -24 -40 -67 -58 -123 -52 -58 7 -103 40 -117 86 -9
32 -7 55 16 152 15 63 29 118 32 123 5 8 53 -1 66 -13z m-1262 -147 c64 -54
88 -157 50 -219 -11 -18 -34 -43 -53 -57 -33 -25 -145 -74 -152 -66 -9 12
-127 301 -124 304 2 3 33 18 69 34 88 41 164 42 210 4z m1698 12 c16 -8 31
-21 35 -30 3 -9 6 -68 7 -132 l1 -117 38 82 c21 45 41 90 45 102 3 11 11 20
16 20 9 0 48 -18 58 -26 2 -2 -29 -71 -69 -153 l-73 -150 -38 20 c-38 19 -39
20 -39 77 0 31 -3 88 -7 126 l-6 70 -48 -103 -48 -102 -31 16 c-16 8 -30 17
-30 19 0 17 142 296 150 296 6 0 24 -7 39 -15z m429 -158 c6 -28 -16 -49 -39
-36 -19 10 -25 39 -12 53 13 13 48 1 51 -17z m-2520 -82 c35 -53 67 -109 72
-126 20 -68 -46 -155 -126 -166 -56 -7 -96 24 -171 132 -35 50 -63 93 -63 96
0 3 13 15 29 27 l29 21 62 -90 c34 -49 73 -97 87 -106 23 -15 28 -15 52 -2 44
26 35 69 -38 174 l-61 89 27 23 c16 12 30 22 33 22 3 0 33 -42 68 -94z m2471
26 l24 -18 -92 -137 c-51 -75 -95 -136 -98 -136 -3 0 -18 9 -33 20 l-28 20 91
135 c50 74 95 135 101 135 6 0 22 -9 35 -19z m164 -119 l27 -28 -58 -116 c-31
-64 -52 -114 -47 -110 6 3 35 22 65 42 30 20 76 49 101 63 l46 27 27 -21 c14
-11 26 -24 26 -29 0 -5 -68 -47 -151 -95 l-152 -87 -32 34 -33 33 71 158 c39
86 74 157 77 157 4 0 18 -13 33 -28z m-1129 -52 c279 -60 508 -163 729 -327
351 -262 595 -651 689 -1098 20 -97 23 -138 23 -345 0 -207 -3 -248 -23 -345
-153 -729 -690 -1268 -1422 -1427 -92 -20 -134 -22 -345 -23 -213 0 -253 3
-350 23 -572 119 -1040 484 -1287 1002 -52 109 -111 286 -140 420 -20 93 -22
133 -22 350 0 217 2 257 22 349 81 368 245 675 495 925 285 284 637 457 1062
520 17 2 129 3 250 1 179 -2 238 -7 319 -25z m-1764 -245 l44 45 25 -24 25
-25 -74 -68 c-40 -37 -76 -68 -79 -68 -3 0 -57 52 -118 116 l-113 115 27 27
28 27 95 -95 96 -95 44 45z m3253 -69 c31 -41 57 -78 57 -83 0 -4 -10 -14 -22
-22 -20 -12 -24 -10 -64 35 -42 49 -42 49 -63 30 -12 -11 -21 -22 -21 -26 0
-4 15 -27 34 -50 l34 -43 -25 -21 c-22 -17 -27 -18 -37 -5 -6 8 -23 30 -37 48
l-26 33 -31 -22 -31 -23 39 -50 c22 -27 40 -53 40 -57 0 -15 -41 -43 -49 -34
-38 43 -121 153 -121 160 1 11 241 202 255 203 6 0 36 -33 68 -73z m-3583 -31
c106 -75 140 -115 140 -166 0 -97 -87 -169 -169 -141 -33 12 -210 133 -211
144 0 4 10 19 23 33 l22 26 76 -54 c94 -68 111 -77 141 -77 57 0 65 60 16 107
-18 16 -63 51 -100 77 l-68 47 22 30 c12 16 24 29 26 29 2 0 39 -25 82 -55z
m3774 -252 c56 -89 60 -157 12 -188 -28 -18 -50 -21 -86 -12 -21 5 -28 2 -38
-21 -6 -15 -31 -44 -55 -64 l-44 -36 -16 34 -17 34 39 37 c43 41 49 56 37 90
l-7 22 -56 -31 -56 -32 -18 23 c-11 13 -19 28 -19 35 0 9 262 163 282 165 3 1
23 -25 42 -56z m-3989 -299 c66 -3 123 -8 127 -10 4 -3 1 -19 -7 -37 -12 -28
-18 -33 -61 -37 -45 -5 -49 -7 -63 -44 -15 -38 -15 -39 17 -65 35 -28 38 -43
19 -78 -12 -22 -15 -20 -142 78 -72 55 -134 104 -138 108 -4 4 1 29 13 55 l20
48 48 -6 c26 -3 101 -8 167 -12z m4134 -45 c29 -27 60 -95 61 -131 0 -25 -3
-28 -35 -28 -33 0 -35 2 -35 35 0 44 -34 83 -56 64 -8 -6 -14 -29 -14 -51 0
-76 -44 -138 -98 -138 -64 0 -119 67 -124 152 -3 42 -2 43 30 46 30 3 32 1 32
-30 0 -49 21 -83 50 -83 19 0 26 6 28 25 9 92 15 114 37 136 32 32 92 33 124
3z m-4415 -302 c15 -11 16 -17 7 -35 -6 -11 -11 -37 -11 -56 0 -54 31 -48 77
14 56 76 119 86 168 28 31 -37 33 -104 5 -166 l-19 -43 -31 16 c-28 14 -29 17
-16 38 24 38 29 83 11 100 -21 21 -40 13 -66 -29 -29 -48 -66 -74 -105 -74
-76 0 -114 84 -80 175 19 47 30 54 60 32z m4611 -17 c0 -20 -6 -26 -28 -28
-18 -2 -29 2 -33 12 -11 28 4 48 33 44 22 -2 28 -8 28 -28z m-81 -12 c3 -17 4
-33 2 -36 -7 -7 -318 -73 -323 -68 -2 2 -6 19 -9 38 l-6 34 139 31 c183 41
189 41 197 1z m43 -280 c6 -68 8 -126 6 -130 -2 -5 -17 -8 -33 -8 -27 0 -29 3
-32 43 -3 48 14 45 -170 32 l-108 -8 0 36 c0 43 1 43 130 52 141 10 138 8 132
61 l-5 44 35 0 35 0 10 -122z m-4528 -66 c25 -25 29 -26 44 -11 14 13 98 39
128 39 6 0 9 -17 7 -37 -3 -36 -5 -38 -53 -51 -62 -17 -75 -28 -75 -58 0 -23
3 -24 65 -24 l65 0 0 -41 0 -40 -157 6 c-87 4 -164 8 -170 10 -18 6 -17 126 1
169 29 68 97 87 145 38z m4509 -209 c32 -5 34 -8 28 -36 -3 -16 -6 -57 -6 -91
0 -75 -7 -86 -44 -79 l-28 6 6 63 7 64 -36 0 c-34 0 -35 -1 -35 -37 0 -66 -9
-83 -43 -83 l-30 0 6 65 6 65 -38 0 -38 0 -7 -68 -7 -68 -29 4 c-34 5 -36 16
-23 146 l6 69 136 -7 c75 -4 151 -10 169 -13z m-4353 -177 c34 -22 57 -71 57
-122 1 -51 -20 -87 -64 -110 -34 -18 -236 -56 -250 -48 -10 7 -11 74 0 74 24
0 192 32 215 42 30 12 46 52 30 76 -21 34 -39 36 -158 18 -64 -10 -117 -17
-119 -15 -2 2 -6 20 -8 39 l-3 35 100 17 c113 19 165 17 200 -6z m4075 -169
c-21 -34 -27 -92 -10 -102 19 -12 48 6 75 46 90 136 240 24 168 -126 -18 -38
-28 -42 -55 -21 -16 12 -17 16 -2 54 35 87 -7 96 -81 17 -41 -44 -57 -55 -82
-55 -42 0 -91 42 -98 84 -7 36 9 109 31 144 14 21 16 21 44 7 l30 -15 -20 -33z
m-3984 -216 c35 -21 86 -116 88 -164 1 -28 -3 -30 -144 -83 -79 -30 -149 -53
-156 -50 -16 6 -56 119 -56 159 0 67 42 101 101 81 23 -8 28 -6 41 21 15 30
51 55 80 55 8 0 29 -9 46 -19z m4014 -91 c80 -29 146 -53 148 -55 1 -1 -4 -18
-13 -37 l-14 -36 -153 56 c-84 30 -155 56 -156 58 -9 7 21 75 32 71 6 -2 76
-28 156 -57z m218 -113 c-2 -17 -10 -22 -33 -22 -35 0 -47 31 -20 51 25 18 57
0 53 -29z m-1634 -1103 c16 -41 7 -51 -53 -64 -79 -17 -85 -21 -76 -59 7 -31
8 -32 26 -15 24 22 89 23 121 2 14 -9 33 -33 43 -54 49 -104 -46 -214 -158
-183 -37 10 -74 50 -63 67 12 19 59 24 68 8 11 -19 59 -21 76 -4 17 17 15 78
-5 100 -21 23 -58 23 -80 -1 -10 -11 -30 -22 -45 -26 -26 -7 -27 -5 -33 47 -3
29 -7 75 -8 102 l-2 49 80 22 c99 28 101 29 109 9z m-1228 -2 c7 -5 -6 -60
-43 -176 l-54 -168 -31 6 c-18 3 -33 8 -36 11 -2 2 12 55 32 119 20 63 36 116
36 118 0 3 -18 10 -40 17 -34 10 -38 14 -31 33 7 19 15 22 52 20 28 -2 51 3
64 12 22 17 35 19 51 8z m384 -77 c48 -25 63 -66 58 -159 -7 -126 -59 -206
-135 -206 -60 0 -123 47 -123 92 0 14 8 18 33 18 26 0 36 -6 45 -25 12 -25 44
-33 68 -17 15 10 34 47 34 67 0 12 -4 14 -19 5 -46 -24 -111 1 -131 50 -7 18
-10 51 -8 82 4 42 11 57 37 80 36 32 93 38 141 13z m482 -15 c3 -21 -3 -41
-19 -65 -35 -52 -70 -151 -78 -222 l-7 -63 -34 0 c-29 0 -34 3 -34 24 0 53 22
135 55 205 l35 74 -85 -7 -85 -7 0 34 0 35 108 9 c59 6 114 11 123 11 11 2 18
-8 21 -28z"/>
<path d="M2090 4750 c0 -25 -3 -55 -6 -67 -6 -21 -4 -23 27 -17 19 4 35 8 37
9 2 2 -10 29 -27 61 l-30 59 -1 -45z"/>
<path d="M1643 4656 l-32 -14 42 -101 c23 -55 45 -101 48 -101 3 0 21 10 40
23 40 27 54 61 45 110 -14 75 -78 112 -143 83z"/>
<path d="M4509 3678 c-19 -11 -36 -22 -38 -24 -2 -2 4 -15 13 -29 14 -21 24
-26 49 -23 26 2 33 8 35 30 2 15 -3 37 -10 47 -14 20 -15 20 -49 -1z"/>
<path d="M483 3335 c25 -19 48 -35 50 -35 3 0 10 13 15 29 9 26 8 30 -11 35
-12 3 -40 6 -61 6 l-39 0 46 -35z"/>
<path d="M280 2641 c-19 -37 -12 -58 21 -65 54 -10 59 -8 59 27 0 18 -5 38
-12 45 -18 18 -56 14 -68 -7z"/>
<path d="M545 1857 c-12 -19 -13 -30 -4 -54 l10 -31 40 16 c44 17 51 40 19 72
-26 26 -46 25 -65 -3z"/>
<path d="M417 1813 c-10 -9 -8 -55 2 -72 8 -12 14 -12 45 0 l35 15 -19 32
c-18 30 -47 41 -63 25z"/>
<path d="M2278 500 c-22 -13 -32 -63 -18 -89 15 -30 56 -37 80 -16 23 21 27
84 8 103 -14 14 -47 15 -70 2z"/>
</g>
</svg>
